<svg width="21" height="22" viewBox="0 0 21 22" fill="none" xmlns="http://www.w3.org/2000/svg">
<g clip-path="url(#clip0_10_9281)">
<path d="M9.81738 20.706H4.0885C2.53159 20.706 1.26835 19.4381 1.26835 17.8858V4.07874C1.26835 2.52182 2.53625 1.25858 4.0885 1.25858H9.91061C10.2602 1.25858 10.5399 0.978896 10.5399 0.629291C10.5399 0.279685 10.2602 0 9.91061 0H4.0885C1.83704 0 0.00976562 1.83193 0.00976562 4.07874V17.8858C0.00976562 20.1373 1.8417 21.9646 4.0885 21.9646H9.81738C10.167 21.9646 10.4467 21.6849 10.4467 21.3353C10.4467 20.9857 10.1623 20.706 9.81738 20.706Z" fill="#423FD7"/>
<path d="M20.1845 10.5395L16.1851 6.54003C15.938 6.29297 15.5418 6.29297 15.2947 6.54003C15.0477 6.78708 15.0477 7.1833 15.2947 7.43036L18.2221 10.3577H5.45449C5.10488 10.3577 4.8252 10.6374 4.8252 10.987C4.8252 11.3366 5.10488 11.6163 5.45449 11.6163H18.2221L15.2947 14.5437C15.0477 14.7907 15.0477 15.1869 15.2947 15.434C15.4159 15.5552 15.5791 15.6205 15.7376 15.6205C15.896 15.6205 16.0592 15.5599 16.1804 15.434L20.1799 11.4345C20.4316 11.1828 20.4316 10.7819 20.1845 10.5395Z" fill="#423FD7"/>
</g>
<defs>
<clipPath id="clip0_10_9281">
<rect width="21" height="22" fill="white"/>
</clipPath>
</defs>
</svg>
